<svg width="20" height="21" viewBox="0 0 20 21" fill="none" xmlns="http://www.w3.org/2000/svg">
<g clip-path="url(#clip0_286_5777)">
<path d="M10 1.3335V19.6668" stroke="#4B5565" stroke-width="1.5" stroke-linecap="round" stroke-linejoin="round"/>
<path d="M14.1667 4.6665H7.91667C7.14312 4.6665 6.40125 4.97379 5.85427 5.52078C5.30729 6.06776 5 6.80962 5 7.58317C5 8.35672 5.30729 9.09858 5.85427 9.64557C6.40125 10.1925 7.14312 10.4998 7.91667 10.4998H12.0833C12.8569 10.4998 13.5987 10.8071 14.1457 11.3541C14.6927 11.9011 15 12.643 15 13.4165C15 14.1901 14.6927 14.9319 14.1457 15.4789C13.5987 16.0259 12.8569 16.3332 12.0833 16.3332H5" stroke="#4B5565" stroke-width="1.5" stroke-linecap="round" stroke-linejoin="round"/>
</g>
<defs>
<clipPath id="clip0_286_5777">
<rect width="20" height="20" fill="white" transform="translate(0 0.5)"/>
</clipPath>
</defs>
</svg>
