<svg width="20" height="21" viewBox="0 0 20 21" fill="none" xmlns="http://www.w3.org/2000/svg">
<g clip-path="url(#clip0_655_7133)">
<path d="M10 1.33325V19.6666" stroke="#4B5565" stroke-width="1.5" stroke-linecap="round" stroke-linejoin="round"/>
<path d="M14.1667 4.66675H7.91667C7.14312 4.66675 6.40125 4.97404 5.85427 5.52102C5.30729 6.068 5 6.80987 5 7.58341C5 8.35696 5.30729 9.09883 5.85427 9.64581C6.40125 10.1928 7.14312 10.5001 7.91667 10.5001H12.0833C12.8569 10.5001 13.5987 10.8074 14.1457 11.3544C14.6927 11.9013 15 12.6432 15 13.4167C15 14.1903 14.6927 14.9322 14.1457 15.4791C13.5987 16.0261 12.8569 16.3334 12.0833 16.3334H5" stroke="#4B5565" stroke-width="1.5" stroke-linecap="round" stroke-linejoin="round"/>
</g>
<defs>
<clipPath id="clip0_655_7133">
<rect width="20" height="20" fill="white" transform="translate(0 0.5)"/>
</clipPath>
</defs>
</svg>
