<svg width="1109" height="1024" viewBox="0 0 1109 1024" fill="none" xmlns="http://www.w3.org/2000/svg">
<g opacity="0.08" clip-path="url(#clip0_68_2255)">
<path d="M1108.66 853.899L878.206 848.934L1019.56 963.672" stroke="white" stroke-width="2" stroke-linejoin="round"/>
<path d="M736.849 734.197L825.95 624.424L878.206 848.934L736.849 734.197Z" stroke="white" stroke-width="2" stroke-linejoin="round"/>
<path d="M647.748 843.97L878.206 848.934L789.105 958.707L647.748 843.97Z" stroke="white" stroke-width="2" stroke-linejoin="round"/>
<path d="M878.206 848.934L789.105 958.707L1019.56 963.672L878.206 848.934Z" stroke="white" stroke-width="2" stroke-linejoin="round"/>
<path d="M684.594 509.687L736.849 734.197L595.492 619.46L684.594 509.687Z" stroke="white" stroke-width="2" stroke-linejoin="round"/>
<path d="M454.135 504.722L595.492 619.46L684.593 509.687L454.135 504.722Z" stroke="white" stroke-width="2" stroke-linejoin="round"/>
<path d="M506.391 729.233L595.492 619.46L365.034 614.495L506.391 729.233Z" stroke="white" stroke-width="2" stroke-linejoin="round"/>
<path d="M736.849 734.197L647.748 843.97L595.492 619.46L736.849 734.197Z" stroke="white" stroke-width="2" stroke-linejoin="round"/>
<path d="M647.748 843.97L506.391 729.233L558.647 953.743L647.748 843.97Z" stroke="white" stroke-width="2" stroke-linejoin="round"/>
<path d="M506.391 729.233L365.034 614.495L275.933 724.268L506.391 729.233Z" stroke="white" stroke-width="2" stroke-linejoin="round"/>
<path d="M328.189 948.778L417.29 839.006L186.832 834.041L328.189 948.778Z" stroke="white" stroke-width="2" stroke-linejoin="round"/>
<path d="M558.647 953.743L469.546 1063.52L417.29 839.005L558.647 953.743Z" stroke="white" stroke-width="2" stroke-linejoin="round"/>
<path d="M789.105 958.707L841.361 1183.22L930.462 1073.44L789.105 958.707Z" stroke="white" stroke-width="2" stroke-linejoin="round"/>
<path d="M700.004 1068.48L647.748 843.97L558.647 953.743L700.004 1068.48Z" stroke="white" stroke-width="2" stroke-linejoin="round"/>
<path d="M700.004 1068.48L469.546 1063.52L558.647 953.743L700.004 1068.48Z" stroke="white" stroke-width="2" stroke-linejoin="round"/>
<path d="M543.237 394.949L454.135 504.722L312.779 389.985L543.237 394.949Z" stroke="white" stroke-width="2" stroke-linejoin="round"/>
<path d="M401.88 280.212L260.523 165.475L171.422 275.248L401.88 280.212Z" stroke="white" stroke-width="2" stroke-linejoin="round"/>
<path d="M312.779 389.985L171.422 275.248L82.3205 385.021L312.779 389.985Z" stroke="white" stroke-width="2" stroke-linejoin="round"/>
<path d="M365.034 614.495L223.677 499.758L312.779 389.985L365.034 614.495Z" stroke="white" stroke-width="2" stroke-linejoin="round"/>
<path d="M260.523 165.475L-200.393 155.546L82.3205 385.021L260.523 165.475Z" stroke="white" stroke-width="2" stroke-linejoin="round"/>
<path d="M82.3204 385.021L-6.78069 494.794L-148.138 380.056L82.3204 385.021Z" stroke="white" stroke-width="2" stroke-linejoin="round"/>
<path d="M365.034 614.495L320.484 669.382L294.356 557.127L365.034 614.495Z" stroke="white" stroke-width="2" stroke-linejoin="round"/>
<path d="M223.677 499.758L294.356 557.127L249.805 612.013L223.677 499.758Z" stroke="white" stroke-width="2" stroke-linejoin="round"/>
<path d="M205.255 666.9L179.127 554.644L134.576 609.531L205.255 666.9Z" stroke="white" stroke-width="2" stroke-linejoin="round"/>
<path d="M275.933 724.268L320.484 669.382L205.255 666.9L275.933 724.268Z" stroke="white" stroke-width="2" stroke-linejoin="round"/>
<path d="M-6.78067 494.793L223.677 499.758L134.576 609.531L-6.78067 494.793Z" stroke="white" stroke-width="2" stroke-linejoin="round"/>
<path d="M45.4752 719.304L134.576 609.531L-6.78064 494.794L45.4752 719.304Z" stroke="white" stroke-width="2" stroke-linejoin="round"/>
<path d="M231.383 779.155L205.255 666.9L160.704 721.786L231.383 779.155Z" stroke="white" stroke-width="2" stroke-linejoin="round"/>
<path d="M160.704 721.786L205.255 666.9L134.576 609.531L160.704 721.786Z" stroke="white" stroke-width="2" stroke-linejoin="round"/>
<path d="M116.154 776.673L160.704 721.786L45.4752 719.304L116.154 776.673Z" stroke="white" stroke-width="2" stroke-linejoin="round"/>
<path d="M116.154 776.672L186.832 834.041L160.704 721.786L116.154 776.672Z" stroke="white" stroke-width="2" stroke-linejoin="round"/>
<path d="M186.832 834.041L-43.6259 829.077L45.4752 719.304L186.832 834.041Z" stroke="white" stroke-width="2" stroke-linejoin="round"/>
<path d="M0.924536 774.19L-25.2034 661.935L-69.7539 716.822L0.924536 774.19Z" stroke="white" stroke-width="2" stroke-linejoin="round"/>
<path d="M-69.7539 716.822L-43.626 829.077L-114.304 771.708L-69.7539 716.822Z" stroke="white" stroke-width="2" stroke-linejoin="round"/>
<path d="M27.0525 886.446L53.1804 998.701L-17.4981 941.332L27.0525 886.446Z" stroke="white" stroke-width="2" stroke-linejoin="round"/>
<path d="M27.0526 886.446L-17.4979 941.332L-43.6259 829.077L27.0526 886.446Z" stroke="white" stroke-width="2" stroke-linejoin="round"/>
<path d="M8.62986 1053.59L53.1804 998.701L-17.498 941.332L8.62986 1053.59Z" stroke="white" stroke-width="2" stroke-linejoin="round"/>
<path d="M-62.0486 996.218L-35.9207 1108.47L-106.599 1051.1L-62.0486 996.218Z" stroke="white" stroke-width="2" stroke-linejoin="round"/>
<path d="M328.189 948.779L239.088 1058.55L380.445 1173.29L328.189 948.779Z" stroke="white" stroke-width="2" stroke-linejoin="round"/>
<path d="M283.638 1003.67L212.96 946.296L257.51 891.41L283.638 1003.67Z" stroke="white" stroke-width="2" stroke-linejoin="round"/>
<path d="M257.51 891.41L142.281 888.928L186.832 834.041L257.51 891.41Z" stroke="white" stroke-width="2" stroke-linejoin="round"/>
<path d="M97.7309 943.814L212.96 946.296L142.281 888.928L97.7309 943.814Z" stroke="white" stroke-width="2" stroke-linejoin="round"/>
<path d="M212.96 946.296L239.088 1058.55L283.638 1003.67L212.96 946.296Z" stroke="white" stroke-width="2" stroke-linejoin="round"/>
<path d="M8.62985 1053.59L239.088 1058.55L97.731 943.814L8.62985 1053.59Z" stroke="white" stroke-width="2" stroke-linejoin="round"/>
</g>
<defs>
<clipPath id="clip0_68_2255">
<rect width="1456.49" height="1131.06" fill="white" transform="translate(-22.1912 -64) rotate(39.0657)"/>
</clipPath>
</defs>
</svg>
