<svg width="1396" height="1285" viewBox="0 0 1396 1285" fill="none" xmlns="http://www.w3.org/2000/svg">
<g opacity="0.15">
<path d="M102.443 58.5646L251.404 66.9848L333.363 191.525L184.403 183.105L102.443 58.5646Z" fill="#D4D4D4"/>
<path opacity="0.3" d="M102.583 58.311L184.441 182.588L117.515 298.466L35.6568 174.189L102.583 58.311Z" fill="#D4D4D4"/>
<path opacity="0.6" d="M184.705 182.985L333.489 191.383L266.563 307.261L117.779 298.863L184.705 182.985Z" fill="#D4D4D4"/>
</g>
<g opacity="0.15">
<path d="M1129.01 481.138L1277.97 489.559L1359.93 614.099L1210.97 605.679L1129.01 481.138Z" fill="#D4D4D4"/>
<path opacity="0.3" d="M1129.14 480.885L1211 605.162L1144.08 721.04L1062.22 596.763L1129.14 480.885Z" fill="#D4D4D4"/>
<path opacity="0.6" d="M1211.27 605.558L1360.05 613.957L1293.13 729.835L1144.34 721.437L1211.27 605.558Z" fill="#D4D4D4"/>
</g>
<g opacity="0.15">
<path d="M135.004 977.138L283.965 985.559L365.925 1110.1L216.964 1101.68L135.004 977.138Z" fill="#D4D4D4"/>
<path opacity="0.3" d="M135.145 976.885L217.003 1101.16L150.077 1217.04L68.2183 1092.76L135.145 976.885Z" fill="#D4D4D4"/>
<path opacity="0.6" d="M217.266 1101.56L366.051 1109.96L299.125 1225.84L150.34 1217.44L217.266 1101.56Z" fill="#D4D4D4"/>
</g>
</svg>
