<svg width="1588" height="1937" viewBox="0 0 1588 1937" fill="none" xmlns="http://www.w3.org/2000/svg">
<g opacity="0.15">
<path d="M116.464 57.2518L265.425 64.1396L346.206 182.817L197.245 175.929L116.464 57.2518Z" fill="#D4D4D4"/>
<path opacity="0.3" d="M117.233 56.4419L197.467 174.28L129.728 285.291L49.4947 167.453L117.233 56.4419Z" fill="#D4D4D4"/>
<path opacity="0.6" d="M198.949 175.54L346.921 182.367L279.182 293.378L131.21 286.552L198.949 175.54Z" fill="#D4D4D4"/>
</g>
<g opacity="0.15">
<path d="M1278.57 1748.6L1388 1654.24L1534.19 1685.76L1424.77 1780.12L1278.57 1748.6Z" fill="#D4D4D4"/>
<path opacity="0.3" d="M1277.46 1748.14L1421.85 1779.27L1458.21 1903.46L1313.82 1872.32L1277.46 1748.14Z" fill="#D4D4D4"/>
<path opacity="0.6" d="M1424.56 1777.31L1532.59 1684.26L1568.95 1808.45L1460.92 1901.5L1424.56 1777.31Z" fill="#D4D4D4"/>
</g>
<g opacity="0.15">
<path d="M1154.78 503.33L1296.36 548.285L1343.54 683.195L1201.96 638.24L1154.78 503.33Z" fill="#D4D4D4"/>
<path opacity="0.3" d="M1154.79 503.33L1201.96 638.24L1107.56 728.194L1060.39 593.285L1154.79 503.33Z" fill="#D4D4D4"/>
<path opacity="0.6" d="M1201.96 638.24L1343.54 683.195L1249.14 773.15L1107.56 728.195L1201.96 638.24Z" fill="#D4D4D4"/>
</g>
<g opacity="0.15">
<path d="M84.8527 1208.48L314.06 1159.06L485.616 1306.99L256.408 1356.42L84.8527 1208.48Z" fill="#D4D4D4"/>
<path opacity="0.3" d="M87.3594 1206.13L256.736 1352.02L199.735 1546.72L30.3583 1400.83L87.3594 1206.13Z" fill="#D4D4D4"/>
<path opacity="0.6" d="M260.979 1355.09L487.357 1306.27L430.356 1500.98L203.978 1549.79L260.979 1355.09Z" fill="#D4D4D4"/>
</g>
</svg>
