<svg width="1571" height="1273" viewBox="0 0 1571 1273" fill="none" xmlns="http://www.w3.org/2000/svg">
<g opacity="0.15">
<path d="M109.968 59.9077L258.929 66.8556L339.673 191.396L190.713 184.448L109.968 59.9077Z" fill="#D4D4D4"/>
<path opacity="0.3" d="M110.758 58.9175L190.94 182.432L123.175 299.073L42.9936 175.558L110.758 58.9175Z" fill="#D4D4D4"/>
<path opacity="0.6" d="M192.461 183.972L340.407 190.846L272.642 307.487L124.696 300.613L192.461 183.972Z" fill="#D4D4D4"/>
</g>
<g opacity="0.15">
<path d="M1191.47 1024.6L1333.71 909.736L1512.66 961.347L1370.42 1076.21L1191.47 1024.6Z" fill="#D4D4D4"/>
<path opacity="0.3" d="M1190.03 1024.06L1366.55 1074.92L1402.81 1238.81L1226.29 1187.96L1190.03 1024.06Z" fill="#D4D4D4"/>
<path opacity="0.6" d="M1370.19 1072.19L1510.45 959.149L1546.71 1123.04L1406.45 1236.08L1370.19 1072.19Z" fill="#D4D4D4"/>
</g>
</svg>
