<svg width="24" height="25" viewBox="0 0 24 25" fill="none" xmlns="http://www.w3.org/2000/svg">
<path d="M20.84 5.10987C20.3292 4.59888 19.7228 4.19352 19.0554 3.91696C18.3879 3.64039 17.6725 3.49805 16.95 3.49805C16.2275 3.49805 15.5121 3.64039 14.8446 3.91696C14.1772 4.19352 13.5708 4.59888 13.06 5.10987L12 6.16987L10.94 5.10987C9.9083 4.07818 8.50903 3.49858 7.05 3.49858C5.59096 3.49858 4.19169 4.07818 3.16 5.10987C2.1283 6.14156 1.54871 7.54084 1.54871 8.99987C1.54871 10.4589 2.1283 11.8582 3.16 12.8899L4.22 13.9499L12 21.7299L19.78 13.9499L20.84 12.8899C21.351 12.3791 21.7563 11.7727 22.0329 11.1052C22.3095 10.4378 22.4518 9.72236 22.4518 8.99987C22.4518 8.27738 22.3095 7.56198 22.0329 6.89452C21.7563 6.22706 21.351 5.62063 20.84 5.10987V5.10987Z" stroke="#F04438" stroke-width="1.5" stroke-linecap="round" stroke-linejoin="round"/>
</svg>
