<svg width="18" height="18" viewBox="0 0 18 18" fill="none" xmlns="http://www.w3.org/2000/svg">
<path d="M14.25 2.25V15.75H9.75V13.125H8.25V15.75H3.75V2.25H14.25ZM11.25 5.25H12.75V3.75H11.25V5.25ZM8.25 5.25H9.75V3.75H8.25V5.25ZM5.25 5.25H6.75V3.75H5.25V5.25ZM11.25 8.25H12.75V6.75H11.25V8.25ZM8.25 8.25H9.75V6.75H8.25V8.25ZM5.25 8.25H6.75V6.75H5.25V8.25ZM11.25 11.25H12.75V9.75H11.25V11.25ZM8.25 11.25H9.75V9.75H8.25V11.25ZM5.25 11.25H6.75V9.75H5.25V11.25ZM11.25 14.25H12.75V12.75H11.25V14.25ZM5.25 14.25H6.75V12.75H5.25V14.25ZM15.75 0.75H2.25V17.25H15.75V0.75Z" fill="#4B5565"/>
</svg>
