<svg width="298" height="20" viewBox="0 0 298 20" fill="none" xmlns="http://www.w3.org/2000/svg">
<path d="M296.598 10.38H295.138C295.071 9.88668 295.011 9.28001 294.957 8.56001C294.904 7.82668 294.864 7.04001 294.837 6.20001C294.811 5.34668 294.797 4.48668 294.797 3.62001V0.26001H296.957V3.62001C296.957 4.50001 296.937 5.36668 296.897 6.22001C296.871 7.06001 296.831 7.84001 296.777 8.56001C296.724 9.28001 296.664 9.88668 296.598 10.38ZM295.878 15C295.491 15 295.151 14.86 294.858 14.58C294.578 14.3 294.438 13.9667 294.438 13.58C294.438 13.1933 294.578 12.86 294.858 12.58C295.151 12.3 295.491 12.16 295.878 12.16C296.264 12.16 296.598 12.3 296.878 12.58C297.158 12.86 297.297 13.1933 297.297 13.58C297.297 13.9667 297.158 14.3 296.878 14.58C296.598 14.86 296.264 15 295.878 15Z" fill="#151515"/>
<path d="M286.625 14.96C285.679 14.96 284.865 14.7467 284.185 14.32C283.505 13.88 282.979 13.2733 282.605 12.5C282.245 11.7267 282.065 10.8467 282.065 9.86C282.065 8.86 282.252 7.97333 282.625 7.2C282.999 6.41333 283.532 5.79333 284.225 5.34C284.919 4.88667 285.745 4.66 286.705 4.66C287.465 4.66 288.139 4.82 288.725 5.14C289.325 5.44667 289.792 5.90667 290.125 6.52V0H291.985V14.72H290.305L290.145 12.94C289.825 13.5933 289.352 14.0933 288.725 14.44C288.112 14.7867 287.412 14.96 286.625 14.96ZM287.005 13.26C287.645 13.26 288.192 13.1133 288.645 12.82C289.112 12.5267 289.472 12.12 289.725 11.6C289.979 11.08 290.105 10.48 290.105 9.8C290.105 9.12 289.979 8.52667 289.725 8.02C289.472 7.5 289.112 7.09333 288.645 6.8C288.192 6.50667 287.645 6.36 287.005 6.36C286.365 6.36 285.819 6.51333 285.365 6.82C284.912 7.11333 284.565 7.52 284.325 8.04C284.085 8.54667 283.965 9.13333 283.965 9.8C283.965 10.48 284.085 11.08 284.325 11.6C284.565 12.12 284.912 12.5267 285.365 12.82C285.819 13.1133 286.365 13.26 287.005 13.26Z" fill="#151515"/>
<path d="M276.485 14.96C275.538 14.96 274.698 14.7467 273.965 14.32C273.232 13.88 272.658 13.28 272.245 12.52C271.832 11.7467 271.625 10.8534 271.625 9.84003C271.625 8.81337 271.825 7.91337 272.225 7.14003C272.638 6.3667 273.198 5.76003 273.905 5.32003C274.625 4.88003 275.458 4.66003 276.405 4.66003C277.338 4.66003 278.145 4.86003 278.825 5.26003C279.518 5.66003 280.052 6.22003 280.425 6.94003C280.812 7.66003 281.005 8.5067 281.005 9.48003V10.18L272.625 10.2L272.665 8.94003H279.125C279.125 8.1267 278.878 7.47337 278.385 6.98003C277.892 6.4867 277.232 6.24003 276.405 6.24003C275.778 6.24003 275.238 6.38003 274.785 6.66003C274.345 6.9267 274.005 7.3267 273.765 7.86003C273.538 8.38003 273.425 9.0067 273.425 9.74003C273.425 10.9134 273.692 11.82 274.225 12.46C274.758 13.0867 275.525 13.4 276.525 13.4C277.258 13.4 277.858 13.2534 278.325 12.96C278.792 12.6667 279.105 12.24 279.265 11.68H281.025C280.785 12.72 280.272 13.5267 279.485 14.1C278.698 14.6734 277.698 14.96 276.485 14.96Z" fill="#151515"/>
<path d="M262.373 14.72H260.673V0H262.553V6.62C262.873 5.98 263.346 5.49333 263.973 5.16C264.6 4.82667 265.313 4.66 266.113 4.66C267.046 4.66 267.846 4.88667 268.513 5.34C269.18 5.78 269.693 6.39333 270.053 7.18C270.413 7.96667 270.593 8.86667 270.593 9.88C270.593 10.8533 270.406 11.7267 270.033 12.5C269.66 13.2733 269.126 13.88 268.433 14.32C267.753 14.7467 266.94 14.96 265.993 14.96C265.233 14.96 264.54 14.7867 263.913 14.44C263.3 14.0933 262.833 13.5933 262.513 12.94L262.373 14.72ZM262.573 9.8C262.573 10.48 262.693 11.08 262.933 11.6C263.186 12.12 263.54 12.5267 263.993 12.82C264.46 13.1133 265.013 13.26 265.653 13.26C266.293 13.26 266.84 13.1133 267.293 12.82C267.746 12.5267 268.093 12.12 268.333 11.6C268.586 11.08 268.713 10.48 268.713 9.8C268.713 9.13333 268.586 8.54667 268.333 8.04C268.093 7.52 267.746 7.11333 267.293 6.82C266.84 6.51333 266.293 6.36 265.653 6.36C265.013 6.36 264.46 6.50667 263.993 6.8C263.54 7.09333 263.186 7.5 262.933 8.02C262.693 8.52667 262.573 9.12 262.573 9.8Z" fill="#151515"/>
<path d="M256.464 14.72V4.94001H258.344V14.72H256.464ZM257.384 2.62002C257.05 2.62002 256.757 2.50002 256.504 2.26002C256.264 2.00668 256.144 1.71335 256.144 1.38001C256.144 1.03335 256.264 0.740015 256.504 0.500015C256.757 0.260015 257.05 0.140015 257.384 0.140015C257.73 0.140015 258.024 0.260015 258.264 0.500015C258.504 0.740015 258.624 1.03335 258.624 1.38001C258.624 1.71335 258.504 2.00668 258.264 2.26002C258.024 2.50002 257.73 2.62002 257.384 2.62002Z" fill="#151515"/>
<path d="M255.101 4.85999V6.57999H254.261C253.368 6.57999 252.661 6.83999 252.141 7.35999C251.634 7.86666 251.381 8.59332 251.381 9.53999V14.72H249.501V4.95999H251.261L251.421 6.91999H251.241C251.374 6.27999 251.694 5.75999 252.201 5.35999C252.708 4.94666 253.341 4.73999 254.101 4.73999C254.274 4.73999 254.434 4.75332 254.581 4.77999C254.741 4.79332 254.914 4.81999 255.101 4.85999Z" fill="#151515"/>
<path d="M238.577 9.84003C238.577 8.81337 238.777 7.91337 239.177 7.14003C239.59 6.3667 240.157 5.76003 240.877 5.32003C241.597 4.88003 242.43 4.66003 243.377 4.66003C244.604 4.66003 245.624 4.9867 246.437 5.64003C247.25 6.29337 247.737 7.16003 247.897 8.24004H246.017C245.857 7.61337 245.544 7.14003 245.077 6.82003C244.61 6.50003 244.064 6.34003 243.437 6.34003C242.85 6.34003 242.33 6.4867 241.877 6.78003C241.424 7.06003 241.07 7.46003 240.817 7.98003C240.564 8.50003 240.437 9.11337 240.437 9.82003C240.437 10.5267 240.557 11.14 240.797 11.66C241.037 12.1667 241.377 12.5667 241.817 12.86C242.257 13.14 242.77 13.28 243.357 13.28C244.024 13.28 244.597 13.1134 245.077 12.78C245.557 12.4467 245.877 11.9934 246.037 11.42H247.917C247.797 12.1267 247.524 12.7467 247.097 13.28C246.684 13.8 246.15 14.2134 245.497 14.52C244.857 14.8134 244.144 14.96 243.357 14.96C242.397 14.96 241.557 14.7467 240.837 14.32C240.13 13.8934 239.577 13.3 239.177 12.54C238.777 11.7667 238.577 10.8667 238.577 9.84003Z" fill="#151515"/>
<path d="M229.853 11.88H231.653C231.653 12.3734 231.833 12.7667 232.193 13.06C232.553 13.34 233.039 13.48 233.653 13.48C234.319 13.48 234.833 13.3534 235.193 13.1C235.553 12.8334 235.733 12.48 235.733 12.04C235.733 11.72 235.633 11.4534 235.433 11.24C235.246 11.0267 234.899 10.8534 234.393 10.72L232.673 10.32C231.806 10.1067 231.159 9.78003 230.733 9.34003C230.319 8.90003 230.113 8.32003 230.113 7.60003C230.113 7.00003 230.266 6.48003 230.573 6.04003C230.893 5.60003 231.326 5.26003 231.873 5.02003C232.433 4.78003 233.073 4.66003 233.793 4.66003C234.513 4.66003 235.133 4.7867 235.653 5.04003C236.186 5.29337 236.599 5.6467 236.893 6.10003C237.199 6.55337 237.359 7.09337 237.373 7.72003H235.573C235.559 7.21337 235.393 6.82003 235.073 6.54003C234.753 6.26003 234.306 6.12003 233.733 6.12003C233.146 6.12003 232.693 6.2467 232.373 6.50003C232.053 6.75337 231.893 7.10003 231.893 7.54003C231.893 8.19337 232.373 8.64003 233.333 8.88003L235.053 9.30003C235.879 9.4867 236.499 9.79337 236.913 10.22C237.326 10.6334 237.533 11.2 237.533 11.92C237.533 12.5334 237.366 13.0734 237.033 13.54C236.699 13.9934 236.239 14.3467 235.653 14.6C235.079 14.84 234.399 14.96 233.613 14.96C232.466 14.96 231.553 14.68 230.873 14.12C230.193 13.56 229.853 12.8134 229.853 11.88Z" fill="#151515"/>
<path d="M220.76 14.72H219.06V0H220.94V6.62C221.26 5.98 221.733 5.49333 222.36 5.16C222.986 4.82667 223.7 4.66 224.5 4.66C225.433 4.66 226.233 4.88667 226.9 5.34C227.566 5.78 228.08 6.39333 228.44 7.18C228.8 7.96667 228.98 8.86667 228.98 9.88C228.98 10.8533 228.793 11.7267 228.42 12.5C228.046 13.2733 227.513 13.88 226.82 14.32C226.14 14.7467 225.326 14.96 224.38 14.96C223.62 14.96 222.926 14.7867 222.3 14.44C221.686 14.0933 221.22 13.5933 220.9 12.94L220.76 14.72ZM220.96 9.8C220.96 10.48 221.08 11.08 221.32 11.6C221.573 12.12 221.926 12.5267 222.38 12.82C222.846 13.1133 223.4 13.26 224.04 13.26C224.68 13.26 225.226 13.1133 225.68 12.82C226.133 12.5267 226.48 12.12 226.72 11.6C226.973 11.08 227.1 10.48 227.1 9.8C227.1 9.13333 226.973 8.54667 226.72 8.04C226.48 7.52 226.133 7.11333 225.68 6.82C225.226 6.51333 224.68 6.36 224.04 6.36C223.4 6.36 222.846 6.50667 222.38 6.8C221.926 7.09333 221.573 7.5 221.32 8.02C221.08 8.52667 220.96 9.12 220.96 9.8Z" fill="#151515"/>
<path d="M214.872 4.93994H216.732V14.7199H215.052L214.852 13.2399C214.572 13.7466 214.132 14.1599 213.532 14.4799C212.932 14.7999 212.272 14.9599 211.552 14.9599C210.419 14.9599 209.539 14.6066 208.912 13.8999C208.299 13.1799 207.992 12.2199 207.992 11.0199V4.93994H209.872V10.3999C209.872 11.4399 210.079 12.1866 210.492 12.6399C210.919 13.0799 211.492 13.2999 212.212 13.2999C213.079 13.2999 213.739 13.0333 214.192 12.4999C214.646 11.9533 214.872 11.1533 214.872 10.0999V4.93994Z" fill="#151515"/>
<path d="M196.449 4.16C196.449 3.33333 196.656 2.60667 197.069 1.98C197.482 1.35333 198.062 0.866667 198.809 0.52C199.569 0.173333 200.442 0 201.429 0C202.349 0 203.149 0.166667 203.829 0.500001C204.522 0.820001 205.062 1.28 205.449 1.88C205.849 2.48 206.076 3.2 206.129 4.04H204.149C204.096 3.32 203.829 2.76 203.349 2.36C202.869 1.96 202.222 1.76 201.409 1.76C200.502 1.76 199.776 1.97333 199.229 2.4C198.682 2.81333 198.409 3.38 198.409 4.1C198.409 4.68667 198.576 5.16 198.909 5.52C199.242 5.86667 199.749 6.12 200.429 6.28L202.809 6.84C203.996 7.10667 204.882 7.56667 205.469 8.22C206.069 8.86 206.369 9.68667 206.369 10.7C206.369 11.5667 206.156 12.32 205.729 12.96C205.316 13.6 204.722 14.0933 203.949 14.44C203.189 14.7867 202.296 14.96 201.269 14.96C200.296 14.96 199.436 14.8 198.689 14.48C197.956 14.1467 197.376 13.68 196.949 13.08C196.536 12.4667 196.302 11.7533 196.249 10.94H198.249C198.262 11.6333 198.542 12.1867 199.089 12.6C199.636 13 200.362 13.2 201.269 13.2C202.229 13.2 202.989 12.9867 203.549 12.56C204.122 12.1333 204.409 11.5667 204.409 10.86C204.409 10.2867 204.249 9.82 203.929 9.46C203.609 9.1 203.102 8.84 202.409 8.68L200.029 8.14C198.856 7.87333 197.962 7.40667 197.349 6.74C196.749 6.06 196.449 5.2 196.449 4.16Z" fill="#151515"/>
<path d="M183.12 4.93994L186.56 14.4599L185.4 16.0599L181.14 4.93994H183.12ZM181.4 19.0999V17.5599H182.66C182.966 17.5599 183.246 17.5266 183.5 17.4599C183.753 17.4066 183.986 17.2799 184.2 17.0799C184.413 16.8933 184.593 16.5933 184.74 16.1799L188.86 4.93994H190.8L186.18 16.9199C185.846 17.7599 185.426 18.3666 184.92 18.7399C184.413 19.1133 183.786 19.2999 183.04 19.2999C182.733 19.2999 182.446 19.2799 182.18 19.2399C181.913 19.2133 181.653 19.1666 181.4 19.0999Z" fill="#151515"/>
<path d="M179.972 14.72H178.092V0H179.972V14.72Z" fill="#151515"/>
<path d="M175.685 14.72H173.805V0H175.685V14.72Z" fill="#151515"/>
<path d="M169.577 4.93994H171.437V14.7199H169.757L169.557 13.2399C169.277 13.7466 168.837 14.1599 168.237 14.4799C167.637 14.7999 166.977 14.9599 166.257 14.9599C165.124 14.9599 164.244 14.6066 163.617 13.8999C163.004 13.1799 162.697 12.2199 162.697 11.0199V4.93994H164.577V10.3999C164.577 11.4399 164.784 12.1866 165.197 12.6399C165.624 13.0799 166.197 13.2999 166.917 13.2999C167.784 13.2999 168.444 13.0333 168.897 12.4999C169.351 11.9533 169.577 11.1533 169.577 10.0999V4.93994Z" fill="#151515"/>
<path d="M155.829 4.94H161.469V6.52H155.829V4.94ZM161.529 0.0799999V1.7C161.409 1.7 161.276 1.7 161.129 1.7C160.996 1.7 160.849 1.7 160.689 1.7C160.076 1.7 159.662 1.84667 159.449 2.14C159.249 2.43333 159.149 2.84667 159.149 3.38V14.72H157.269V3.38C157.269 2.58 157.402 1.93333 157.669 1.44C157.949 0.933334 158.316 0.566667 158.769 0.34C159.236 0.113333 159.769 0 160.369 0C160.556 0 160.749 0.00666698 160.949 0.0200009C161.149 0.0333341 161.342 0.0533336 161.529 0.0799999Z" fill="#151515"/>
<path d="M147.505 11.88H149.305C149.305 12.3734 149.485 12.7667 149.845 13.06C150.205 13.34 150.692 13.48 151.305 13.48C151.972 13.48 152.485 13.3534 152.845 13.1C153.205 12.8334 153.385 12.48 153.385 12.04C153.385 11.72 153.285 11.4534 153.085 11.24C152.898 11.0267 152.552 10.8534 152.045 10.72L150.325 10.32C149.458 10.1067 148.812 9.78003 148.385 9.34003C147.972 8.90003 147.765 8.32003 147.765 7.60003C147.765 7.00003 147.918 6.48003 148.225 6.04003C148.545 5.60003 148.978 5.26003 149.525 5.02003C150.085 4.78003 150.725 4.66003 151.445 4.66003C152.165 4.66003 152.785 4.7867 153.305 5.04003C153.838 5.29337 154.252 5.6467 154.545 6.10003C154.852 6.55337 155.012 7.09337 155.025 7.72003H153.225C153.212 7.21337 153.045 6.82003 152.725 6.54003C152.405 6.26003 151.958 6.12003 151.385 6.12003C150.798 6.12003 150.345 6.2467 150.025 6.50003C149.705 6.75337 149.545 7.10003 149.545 7.54003C149.545 8.19337 150.025 8.64003 150.985 8.88003L152.705 9.30003C153.532 9.4867 154.152 9.79337 154.565 10.22C154.978 10.6334 155.185 11.2 155.185 11.92C155.185 12.5334 155.018 13.0734 154.685 13.54C154.352 13.9934 153.892 14.3467 153.305 14.6C152.732 14.84 152.052 14.96 151.265 14.96C150.118 14.96 149.205 14.68 148.525 14.12C147.845 13.56 147.505 12.8134 147.505 11.88Z" fill="#151515"/>
<path d="M138.939 11.88H140.739C140.739 12.3734 140.919 12.7667 141.279 13.06C141.639 13.34 142.126 13.48 142.739 13.48C143.406 13.48 143.919 13.3534 144.279 13.1C144.639 12.8334 144.819 12.48 144.819 12.04C144.819 11.72 144.719 11.4534 144.519 11.24C144.333 11.0267 143.986 10.8534 143.479 10.72L141.759 10.32C140.893 10.1067 140.246 9.78003 139.819 9.34003C139.406 8.90003 139.199 8.32003 139.199 7.60003C139.199 7.00003 139.353 6.48003 139.659 6.04003C139.979 5.60003 140.413 5.26003 140.959 5.02003C141.519 4.78003 142.159 4.66003 142.879 4.66003C143.599 4.66003 144.219 4.7867 144.739 5.04003C145.273 5.29337 145.686 5.6467 145.979 6.10003C146.286 6.55337 146.446 7.09337 146.459 7.72003H144.659C144.646 7.21337 144.479 6.82003 144.159 6.54003C143.839 6.26003 143.393 6.12003 142.819 6.12003C142.233 6.12003 141.779 6.2467 141.459 6.50003C141.139 6.75337 140.979 7.10003 140.979 7.54003C140.979 8.19337 141.459 8.64003 142.419 8.88003L144.139 9.30003C144.966 9.4867 145.586 9.79337 145.999 10.22C146.413 10.6334 146.619 11.2 146.619 11.92C146.619 12.5334 146.453 13.0734 146.119 13.54C145.786 13.9934 145.326 14.3467 144.739 14.6C144.166 14.84 143.486 14.96 142.699 14.96C141.553 14.96 140.639 14.68 139.959 14.12C139.279 13.56 138.939 12.8134 138.939 11.88Z" fill="#151515"/>
<path d="M133.52 14.96C132.573 14.96 131.733 14.7467 131 14.32C130.267 13.88 129.693 13.28 129.28 12.52C128.867 11.7467 128.66 10.8534 128.66 9.84003C128.66 8.81337 128.86 7.91337 129.26 7.14003C129.673 6.3667 130.233 5.76003 130.94 5.32003C131.66 4.88003 132.493 4.66003 133.44 4.66003C134.373 4.66003 135.18 4.86003 135.86 5.26003C136.553 5.66003 137.087 6.22003 137.46 6.94003C137.847 7.66003 138.04 8.5067 138.04 9.48003V10.18L129.66 10.2L129.7 8.94003H136.16C136.16 8.1267 135.913 7.47337 135.42 6.98003C134.927 6.4867 134.267 6.24003 133.44 6.24003C132.813 6.24003 132.273 6.38003 131.82 6.66003C131.38 6.9267 131.04 7.3267 130.8 7.86003C130.573 8.38003 130.46 9.0067 130.46 9.74003C130.46 10.9134 130.727 11.82 131.26 12.46C131.793 13.0867 132.56 13.4 133.56 13.4C134.293 13.4 134.893 13.2534 135.36 12.96C135.827 12.6667 136.14 12.24 136.3 11.68H138.06C137.82 12.72 137.307 13.5267 136.52 14.1C135.733 14.6734 134.733 14.96 133.52 14.96Z" fill="#151515"/>
<path d="M118.376 9.84003C118.376 8.81337 118.576 7.91337 118.976 7.14003C119.389 6.3667 119.956 5.76003 120.676 5.32003C121.396 4.88003 122.229 4.66003 123.176 4.66003C124.403 4.66003 125.423 4.9867 126.236 5.64003C127.049 6.29337 127.536 7.16003 127.696 8.24004H125.816C125.656 7.61337 125.343 7.14003 124.876 6.82003C124.409 6.50003 123.863 6.34003 123.236 6.34003C122.649 6.34003 122.129 6.4867 121.676 6.78003C121.223 7.06003 120.869 7.46003 120.616 7.98003C120.363 8.50003 120.236 9.11337 120.236 9.82003C120.236 10.5267 120.356 11.14 120.596 11.66C120.836 12.1667 121.176 12.5667 121.616 12.86C122.056 13.14 122.569 13.28 123.156 13.28C123.823 13.28 124.396 13.1134 124.876 12.78C125.356 12.4467 125.676 11.9934 125.836 11.42H127.716C127.596 12.1267 127.323 12.7467 126.896 13.28C126.483 13.8 125.949 14.2134 125.296 14.52C124.656 14.8134 123.943 14.96 123.156 14.96C122.196 14.96 121.356 14.7467 120.636 14.32C119.929 13.8934 119.376 13.3 118.976 12.54C118.576 11.7667 118.376 10.8667 118.376 9.84003Z" fill="#151515"/>
<path d="M108.093 9.84003C108.093 8.81337 108.293 7.91337 108.693 7.14003C109.106 6.3667 109.673 5.76003 110.393 5.32003C111.113 4.88003 111.946 4.66003 112.893 4.66003C114.119 4.66003 115.139 4.9867 115.953 5.64003C116.766 6.29337 117.253 7.16003 117.413 8.24004H115.533C115.373 7.61337 115.059 7.14003 114.593 6.82003C114.126 6.50003 113.579 6.34003 112.953 6.34003C112.366 6.34003 111.846 6.4867 111.393 6.78003C110.939 7.06003 110.586 7.46003 110.333 7.98003C110.079 8.50003 109.953 9.11337 109.953 9.82003C109.953 10.5267 110.073 11.14 110.313 11.66C110.553 12.1667 110.893 12.5667 111.333 12.86C111.773 13.14 112.286 13.28 112.873 13.28C113.539 13.28 114.113 13.1134 114.593 12.78C115.073 12.4467 115.393 11.9934 115.553 11.42H117.433C117.313 12.1267 117.039 12.7467 116.613 13.28C116.199 13.8 115.666 14.2134 115.013 14.52C114.373 14.8134 113.659 14.96 112.873 14.96C111.913 14.96 111.073 14.7467 110.353 14.32C109.646 13.8934 109.093 13.3 108.693 12.54C108.293 11.7667 108.093 10.8667 108.093 9.84003Z" fill="#151515"/>
<path d="M104.74 4.93994H106.6V14.7199H104.92L104.72 13.2399C104.44 13.7466 104 14.1599 103.4 14.4799C102.8 14.7999 102.14 14.9599 101.42 14.9599C100.287 14.9599 99.407 14.6066 98.7804 13.8999C98.167 13.1799 97.8604 12.2199 97.8604 11.0199V4.93994H99.7404V10.3999C99.7404 11.4399 99.947 12.1866 100.36 12.6399C100.787 13.0799 101.36 13.2999 102.08 13.2999C102.947 13.2999 103.607 13.0333 104.06 12.4999C104.514 11.9533 104.74 11.1533 104.74 10.0999V4.93994Z" fill="#151515"/>
<path d="M86.3172 4.16C86.3172 3.33333 86.5239 2.60667 86.9372 1.98C87.3505 1.35333 87.9305 0.866667 88.6772 0.52C89.4372 0.173333 90.3105 0 91.2972 0C92.2172 0 93.0172 0.166667 93.6972 0.500001C94.3905 0.820001 94.9305 1.28 95.3172 1.88C95.7172 2.48 95.9439 3.2 95.9972 4.04H94.0172C93.9639 3.32 93.6972 2.76 93.2172 2.36C92.7372 1.96 92.0905 1.76 91.2772 1.76C90.3705 1.76 89.6439 1.97333 89.0972 2.4C88.5505 2.81333 88.2772 3.38 88.2772 4.1C88.2772 4.68667 88.4439 5.16 88.7772 5.52C89.1105 5.86667 89.6172 6.12 90.2972 6.28L92.6772 6.84C93.8639 7.10667 94.7505 7.56667 95.3372 8.22C95.9372 8.86 96.2372 9.68667 96.2372 10.7C96.2372 11.5667 96.0239 12.32 95.5972 12.96C95.1839 13.6 94.5905 14.0933 93.8172 14.44C93.0572 14.7867 92.1639 14.96 91.1372 14.96C90.1639 14.96 89.3039 14.8 88.5572 14.48C87.8239 14.1467 87.2439 13.68 86.8172 13.08C86.4039 12.4667 86.1705 11.7533 86.1172 10.94H88.1172C88.1305 11.6333 88.4105 12.1867 88.9572 12.6C89.5039 13 90.2305 13.2 91.1372 13.2C92.0972 13.2 92.8572 12.9867 93.4172 12.56C93.9905 12.1333 94.2772 11.5667 94.2772 10.86C94.2772 10.2867 94.1172 9.82 93.7972 9.46C93.4772 9.1 92.9705 8.84 92.2772 8.68L89.8972 8.14C88.7239 7.87333 87.8305 7.40667 87.2172 6.74C86.6172 6.06 86.3172 5.2 86.3172 4.16Z" fill="#151515"/>
<path d="M75.5485 14.96C74.6018 14.96 73.7618 14.7467 73.0285 14.32C72.2951 13.88 71.7218 13.28 71.3085 12.52C70.8951 11.7467 70.6885 10.8534 70.6885 9.84003C70.6885 8.81337 70.8885 7.91337 71.2885 7.14003C71.7018 6.3667 72.2618 5.76003 72.9685 5.32003C73.6885 4.88003 74.5218 4.66003 75.4685 4.66003C76.4018 4.66003 77.2085 4.86003 77.8885 5.26003C78.5818 5.66003 79.1151 6.22003 79.4885 6.94003C79.8751 7.66003 80.0685 8.5067 80.0685 9.48003V10.18L71.6885 10.2L71.7285 8.94003H78.1885C78.1885 8.1267 77.9418 7.47337 77.4485 6.98003C76.9551 6.4867 76.2951 6.24003 75.4685 6.24003C74.8418 6.24003 74.3018 6.38003 73.8485 6.66003C73.4085 6.9267 73.0685 7.3267 72.8285 7.86003C72.6018 8.38003 72.4885 9.0067 72.4885 9.74003C72.4885 10.9134 72.7551 11.82 73.2885 12.46C73.8218 13.0867 74.5885 13.4 75.5885 13.4C76.3218 13.4 76.9218 13.2534 77.3885 12.96C77.8551 12.6667 78.1685 12.24 78.3285 11.68H80.0885C79.8485 12.72 79.3351 13.5267 78.5485 14.1C77.7618 14.6734 76.7618 14.96 75.5485 14.96Z" fill="#151515"/>
<path d="M64.7418 14.7199L60.8018 4.93994H62.8018L64.9418 10.3999C65.1151 10.8533 65.2684 11.2866 65.4018 11.6999C65.5351 12.0999 65.6418 12.4466 65.7218 12.7399C65.8151 12.4066 65.9284 12.0399 66.0618 11.6399C66.2084 11.2399 66.3684 10.8266 66.5418 10.3999L68.7218 4.93994H70.6818L66.6018 14.7199H64.7418Z" fill="#151515"/>
<path d="M54.9689 14.96C53.9289 14.96 53.1089 14.6867 52.5089 14.14C51.9222 13.5934 51.6289 12.88 51.6289 12C51.6289 11.1067 51.9489 10.3934 52.5889 9.86003C53.2289 9.31337 54.1222 8.99337 55.2689 8.90003L58.3489 8.66003V8.38003C58.3489 7.83337 58.2489 7.40003 58.0489 7.08003C57.8489 6.7467 57.5756 6.51337 57.2289 6.38003C56.8822 6.23337 56.4889 6.16003 56.0489 6.16003C55.2622 6.16003 54.6489 6.3267 54.2089 6.66003C53.7822 6.98003 53.5689 7.44003 53.5689 8.04003H51.9289C51.9289 7.36003 52.1022 6.7667 52.4489 6.26003C52.7956 5.75337 53.2822 5.36003 53.9089 5.08003C54.5489 4.80003 55.2889 4.66003 56.1289 4.66003C56.9422 4.66003 57.6489 4.8067 58.2489 5.10003C58.8622 5.38003 59.3356 5.81337 59.6689 6.40003C60.0156 6.97337 60.1889 7.70003 60.1889 8.58003V14.72H58.5889L58.3889 13.14C58.1356 13.7 57.6956 14.1467 57.0689 14.48C56.4556 14.8 55.7556 14.96 54.9689 14.96ZM55.5089 13.5C56.4022 13.5 57.1022 13.2334 57.6089 12.7C58.1156 12.1534 58.3689 11.42 58.3689 10.5V9.98003L55.8689 10.18C55.0422 10.26 54.4422 10.4534 54.0689 10.76C53.7089 11.0667 53.5289 11.46 53.5289 11.94C53.5289 12.46 53.7022 12.8534 54.0489 13.12C54.4089 13.3734 54.8956 13.5 55.5089 13.5Z" fill="#151515"/>
<path d="M40.3555 14.72H38.3955V0.26001H40.3555V6.48001H47.5155V0.26001H49.4755V14.72H47.5155V8.30001H40.3555V14.72Z" fill="#151515"/>
<path d="M28.8195 4.93994H30.6795V14.7199H28.9995L28.7995 13.2399C28.5195 13.7466 28.0795 14.1599 27.4795 14.4799C26.8795 14.7999 26.2195 14.9599 25.4995 14.9599C24.3661 14.9599 23.4861 14.6066 22.8595 13.8999C22.2461 13.1799 21.9395 12.2199 21.9395 11.0199V4.93994H23.8195V10.3999C23.8195 11.4399 24.0261 12.1866 24.4395 12.6399C24.8661 13.0799 25.4395 13.2999 26.1595 13.2999C27.0261 13.2999 27.6861 13.0333 28.1395 12.4999C28.5928 11.9533 28.8195 11.1533 28.8195 10.0999V4.93994Z" fill="#151515"/>
<path d="M10.4326 9.82006C10.4326 8.82006 10.6526 7.93339 11.0926 7.16005C11.5326 6.38672 12.1326 5.78005 12.8926 5.34005C13.666 4.90005 14.5459 4.68005 15.5326 4.68005C16.5193 4.68005 17.3926 4.90005 18.1526 5.34005C18.9126 5.78005 19.5126 6.38672 19.9526 7.16005C20.3926 7.93339 20.6126 8.82006 20.6126 9.82006C20.6126 10.8201 20.3926 11.7067 19.9526 12.4801C19.5126 13.2534 18.9126 13.8601 18.1526 14.3001C17.3926 14.7401 16.5193 14.9601 15.5326 14.9601C14.5459 14.9601 13.666 14.7401 12.8926 14.3001C12.1326 13.8601 11.5326 13.2534 11.0926 12.4801C10.6526 11.7067 10.4326 10.8201 10.4326 9.82006ZM12.3326 9.82006C12.3326 10.5001 12.466 11.1001 12.7326 11.6201C13.0126 12.1401 13.3926 12.5467 13.8726 12.8401C14.3526 13.1334 14.906 13.2801 15.5326 13.2801C16.1593 13.2801 16.7126 13.1334 17.1926 12.8401C17.6726 12.5467 18.046 12.1401 18.3126 11.6201C18.5926 11.1001 18.7326 10.5001 18.7326 9.82006C18.7326 9.12672 18.5926 8.52672 18.3126 8.02005C18.046 7.50005 17.6726 7.09339 17.1926 6.80005C16.7126 6.50672 16.1593 6.36005 15.5326 6.36005C14.906 6.36005 14.3526 6.50672 13.8726 6.80005C13.3926 7.09339 13.0126 7.50005 12.7326 8.02005C12.466 8.52672 12.3326 9.12672 12.3326 9.82006Z" fill="#151515"/>
<path d="M2.68215 4.93994L6.12215 14.4599L4.96215 16.0599L0.702148 4.93994H2.68215ZM0.962148 19.0999V17.5599H2.22215C2.52882 17.5599 2.80882 17.5266 3.06215 17.4599C3.31548 17.4066 3.54882 17.2799 3.76215 17.0799C3.97548 16.8933 4.15548 16.5933 4.30215 16.1799L8.42215 4.93994H10.3621L5.74215 16.9199C5.40882 17.7599 4.98882 18.3666 4.48215 18.7399C3.97548 19.1133 3.34882 19.2999 2.60215 19.2999C2.29548 19.2999 2.00882 19.2799 1.74215 19.2399C1.47548 19.2133 1.21548 19.1666 0.962148 19.0999Z" fill="#151515"/>
</svg>
